Coordinates
version=1
nRows=32
nColumns=22
inDegrees=yes

Units are S.I. units (second, meters, Newtons, ...)
If the header above contains a line with 'inDegrees', this indicates whether rotational values are in degrees (yes) or radians (no).

endheader
time	pelvis_tilt	pelvis_list	pelvis_rotation	pelvis_tx	pelvis_ty	pelvis_tz	hip_flexion_r	hip_adduction_r	hip_rotation_r	knee_angle_r	ankle_angle_r	subtalar_angle_r	hip_flexion_l	hip_adduction_l	hip_rotation_l	knee_angle_l	ankle_angle_l	subtalar_angle_l	lumbar_extension	lumbar_bending	lumbar_rotation
      2.54000000	     -9.76072269	     -7.10501362	     -2.66612548	      0.32381983	      0.95186496	      0.31793464	      1.41711666	     11.01502540	      1.36471527	    -22.97834315	     22.94019796	      0.39856400	     40.38925723	     -5.52267149	      0.78424356	    -23.36627372	      5.57763621	      3.74495482	     -1.30802150	      8.73918570	      8.22415025
      2.55000000	     -9.58180645	     -6.70906404	     -2.64967856	      0.33424835	      0.95235577	      0.31680316	      1.09695877	     10.49428697	      1.51490810	    -23.84874901	     22.49020877	      1.17234667	     40.21282963	     -5.13433356	      0.48402405	    -24.56439055	      5.04602077	      3.38251520	     -1.26030260	      8.20287869	      8.04578159
      2.56000000	     -9.37811632	     -6.28062635	     -2.62114820	      0.34475939	      0.95303107	      0.31563171	      0.81772042	      9.93367561	      1.61932613	    -24.82240747	     21.94072285	      1.98512937	     39.96262846	     -4.72163371	      0.18062344	    -25.69125638	      4.76057415	      3.17073025	     -1.24022687	      7.62513881	      7.87900061
      2.57000000	     -9.17655744	     -5.83306447	     -2.59151034	      0.35529493	      0.95383052	      0.31442485	      0.62380989	      9.34369598	      1.65971338	    -25.91989523	     21.27781215	      2.83321436	     39.65966615	     -4.28952830	     -0.11094305	    -26.72302193	      4.69425032	      3.03598499	     -1.22223480	      7.02895987	      7.73218124
      2.58000000	     -9.00296806	     -5.38502244	     -2.57516304	      0.36577914	      0.95468569	      0.31320683	      0.56380682	      8.73828630	      1.61543069	    -27.17139540	     20.48661004	      3.71790598	     39.32771567	     -3.85162811	     -0.37554967	    -27.64421522	      4.81377980	      2.89512155	     -1.18476030	      6.43849435	      7.61910915
      2.59000000	     -8.87865682	     -4.95084583	     -2.58340472	      0.37614472	      0.95553233	      0.31199184	      0.67906781	      8.12678011	      1.47434949	    -28.60149700	     19.55435695	      4.61000840	     38.98893062	     -3.41914571	     -0.61110928	    -28.44799008	      5.08234402	      2.68214374	     -1.10892941	      5.87350932	      7.54995088
      2.60000000	     -8.81428151	     -4.51651661	     -2.62134963	      0.38634069	      0.95633145	      0.31077803	      1.00217027	      7.48982424	      1.23378788	    -30.24035196	     18.46968858	      5.33714097	     38.64705087	     -2.97575176	     -0.82665778	    -29.11673062	      5.42875933	      2.40846306	     -0.98495167	      5.31829507	      7.54716005
      2.61000000	     -8.79250344	     -4.11378114	     -2.67838507	      0.39640440	      0.95709451	      0.30955717	      1.49565557	      6.86140073	      0.93323402	    -32.05159664	     17.20648061	      6.13233617	     38.28813915	     -2.54558422	     -1.01569153	    -29.66472012	      5.88826729	      1.99626425	     -0.82460186	      4.81289571	      7.54954463
      2.62000000	     -8.79931626	     -3.75920830	     -2.72912376	      0.40633076	      0.95781175	      0.30828469	      2.14040118	      6.26798633	      0.61074459	    -34.02768545	     15.78510182	      7.02073891	     37.91106270	     -2.13148413	     -1.16842112	    -30.11319380	      6.46831050	      1.39673909	     -0.64437463	      4.38022425	      7.53642319
      2.63000000	     -8.79292076	     -3.33947086	     -2.78520507	      0.41614667	      0.95857403	      0.30694423	      2.91486926	      5.57737889	      0.25255060	    -36.20400958	     14.21601132	      7.47964303	     37.43834851	     -1.63841010	     -1.35143319	    -30.40836748	      7.01281139	      0.97816275	     -0.48634418	      3.88191226	      7.54544351
      2.64000000	     -8.81085167	     -2.94335619	     -2.82470988	      0.42585847	      0.95928008	      0.30556469	      3.82517470	      4.90600380	     -0.07460777	    -38.52203932	     12.54731908	      8.02888078	     36.95227493	     -1.14368193	     -1.50406303	    -30.62523958	      7.66863857	      0.28129524	     -0.30121700	      3.41891336	      7.50915246
      2.65000000	     -8.77356689	     -2.47998570	     -2.85689462	      0.43546642	      0.96010583	      0.30412431	      4.79458924	      4.13803188	     -0.40412144	    -40.98048154	     10.78347972	      8.25483719	     36.34568929	     -0.57375062	     -1.69718208	    -30.71781422	      8.26324266	     -0.10321345	     -0.18792873	      2.88555597	      7.45877124
      2.66000000	     -8.76506227	     -2.01089868	     -2.89612756	      0.44490689	      0.96087182	      0.30270289	      5.90340178	      3.35806446	     -0.69210572	    -43.55267754	      8.99236992	      8.31690228	     35.74029043	      0.00314056	     -1.87902605	    -30.74200461	      8.91863441	     -0.67710765	     -0.05249810	      2.35284468	      7.37689822
      2.67000000	     -8.71990258	     -1.49347338	     -2.94456709	      0.45416080	      0.96171725	      0.30130786	      7.07907104	      2.49591882	     -0.98947956	    -46.20874111	      7.19797866	      8.25817970	     35.06580627	      0.61627139	     -2.11075345	    -30.68388133	      9.48477285	     -0.97248759	      0.01935370	      1.76598205	      7.28467050
      2.68000000	     -8.73334755	     -0.96528293	     -3.02337814	      0.46318026	      0.96242525	      0.30001692	      8.41277668	      1.61492577	     -1.25645451	    -48.91090019	      5.47521131	      7.81493771	     34.44663869	      1.21575767	     -2.37166277	    -30.58388950	     10.11094176	     -1.39023036	      0.14289161	      1.17344042	      7.15885020
      2.69000000	     -8.73815438	     -0.44643730	     -3.12445087	      0.47193704	      0.96314926	      0.29881606	      9.81933924	      0.71786722	     -1.53436967	    -51.59870229	      3.81765705	      7.22005504	     33.80866535	      1.79790881	     -2.61074272	    -30.43030369	     10.64794891	     -1.68377385	      0.22374611	      0.58971587	      7.06283103
      2.70000000	     -8.74707964	      0.08711869	     -3.24590795	      0.48049271	      0.96382832	      0.29769216	     11.29167129	     -0.21604393	     -1.79837912	    -54.22452827	      2.40599281	      6.59238164	     33.17400877	      2.37777668	     -2.89048006	    -30.23962919	     11.17064041	     -1.91025651	      0.29082312	     -0.00652282	      6.93597939
      2.71000000	     -8.74556828	      0.60671854	     -3.37591104	      0.48887292	      0.96449652	      0.29661639	     12.79083429	     -1.15107668	     -2.04918594	    -56.72440064	      1.29119133	      5.95821896	     32.52835720	      2.94225014	     -3.16903122	    -30.01775430	     11.66648465	     -2.11451099	      0.32734022	     -0.58090543	      6.78814242
      2.72000000	     -8.71739382	      1.11028267	     -3.50812246	      0.49713258	      0.96519248	      0.29557442	     14.27623467	     -2.07689998	     -2.27130979	    -59.04697773	      0.57391852	      5.43455988	     31.84931236	      3.49360908	     -3.45004014	    -29.76016996	     12.13359836	     -2.29234175	      0.32087551	     -1.13180779	      6.59250130
      2.73000000	     -8.65348761	      1.57503408	     -3.62396696	      0.50528956	      0.96594580	      0.29451382	     15.71837877	     -2.97684941	     -2.49913401	    -61.14518448	      0.23691208	      5.01332441	     31.13124643	      4.02826810	     -3.68346214	    -29.48012279	     12.54576881	     -2.44778795	      0.26085759	     -1.63337828	      6.38915726
      2.74000000	     -8.57777995	      1.97346207	     -3.73389241	      0.51336907	      0.96674741	      0.29349419	     17.12298161	     -3.77621974	     -2.67654305	    -62.97889465	      0.23259864	      4.44377247	     30.38542940	      4.50695389	     -3.87956796	    -29.16299091	     12.98845171	     -2.67279290	      0.18064401	     -2.05049668	      6.14431897
      2.75000000	     -8.46110866	      2.32408882	     -3.79285305	      0.52136901	      0.96763673	      0.29241845	     18.44315645	     -4.53422794	     -2.88200401	    -64.53267119	      0.57480373	      4.10244274	     29.60038784	      4.96855528	     -4.02762516	    -28.83942170	     13.36598855	     -2.79746871	      0.04222708	     -2.41137402	      5.83637966
      2.76000000	     -8.33926868	      2.59609304	     -3.83428596	      0.52927998	      0.96858132	      0.29137823	     19.71020680	     -5.17332467	     -3.05895044	    -65.79008659	      1.16504544	      3.72671935	     28.79649782	      5.36651695	     -4.10442955	    -28.48970903	     13.74283290	     -2.92913226	     -0.11041936	     -2.67967985	      5.51726854
      2.77000000	     -8.19800523	      2.80181467	     -3.86705101	      0.53713941	      0.96960349	      0.29038539	     20.90307101	     -5.71540260	     -3.23198993	    -66.74061304	      1.81241588	      3.09436262	     27.96130894	      5.69301359	     -4.20312562	    -28.12088853	     14.11625525	     -3.18005865	     -0.28663253	     -2.86721259	      5.16567609
      2.78000000	     -8.07263847	      2.92379292	     -3.83139804	      0.54485804	      0.97062400	      0.28938010	     22.04594103	     -6.13988573	     -3.42471400	    -67.39784776	      2.66509076	      2.76718877	     27.15770086	      5.96051803	     -4.21008901	    -27.77552726	     14.44050244	     -3.26156280	     -0.46243153	     -2.96332863	      4.74894439
      2.79000000	     -7.94219351	      3.00064067	     -3.78003959	      0.55252845	      0.97168083	      0.28839225	     23.12142376	     -6.48916995	     -3.61290283	    -67.76105854	      3.55085220	      2.34210692	     26.33327759	      6.18465597	     -4.20329963	    -27.40285427	     14.75518902	     -3.38426809	     -0.64050790	     -3.00038800	      4.31905875
      2.80000000	     -7.79708806	      3.01854810	     -3.69940344	      0.56012571	      0.97276757	      0.28746458	     24.11443651	     -6.73623652	     -3.79864599	    -67.84202820	      4.43462119	      1.78118047	     25.48003810	      6.35665040	     -4.14088097	    -27.00963438	     15.10940263	     -3.55354815	     -0.84219709	     -2.98352807	      3.89082148
      2.81000000	     -7.68519707	      2.98946427	     -3.57946273	      0.56761074	      0.97376942	      0.28654712	     25.08009248	     -6.89838734	     -3.97596995	    -67.66543505	      5.42840894	      1.42189620	     24.68466334	      6.47694201	     -4.07641951	    -26.65423808	     15.42052714	     -3.63081224	     -1.01311120	     -2.90930427	      3.42431376
      2.82000000	     -7.56963372	      2.94473394	     -3.44113498	      0.57506203	      0.97473633	      0.28565286	     25.98298556	     -7.01942539	     -4.14353395	    -67.24602072	      6.45015161	      1.07629732	     23.87519885	      6.58114245	     -3.99563637	    -26.27977231	     15.74812607	     -3.70755244	     -1.18296221	     -2.82100540	      2.97065319
      2.83000000	     -7.46069791	      2.89483684	     -3.28128942	      0.58244398	      0.97562852	      0.28480408	     26.84159421	     -7.10372032	     -4.28724706	    -66.60879136	      7.49610139	      0.81204619	     23.07392957	      6.67532927	     -3.91028572	    -25.90064306	     16.07362006	     -3.76612775	     -1.34911968	     -2.73596731	      2.51888212
      2.84000000	     -7.35497408	      2.85220454	     -3.11031358	      0.58981698	      0.97643916	      0.28396425	     27.64881970	     -7.18471105	     -4.42189498	    -65.76456230	      8.54606984	      0.64593839	     22.27641169	      6.77204013	     -3.83149480	    -25.52127559	     16.39804278	     -3.81058653	     -1.50456140	     -2.65912133	      2.08105328
      2.85000000	     -7.24870992	      2.82215195	     -2.92790434	      0.59715123	      0.97715641	      0.28313837	     28.41167451	     -7.27124021	     -4.54969362	    -64.74620198	      9.57803611	      0.57303981	     21.47938389	      6.87779877	     -3.75287802	    -25.13733868	     16.72026996	     -3.84488830	     -1.66309305	     -2.59792449	      1.65499983
